<?xml version="1.0" encoding="UTF-8"?>
<svg xmlns="http://www.w3.org/2000/svg" xmlns:xlink="http://www.w3.org/1999/xlink" width="64px" height="64px" viewBox="0 0 64 64" version="1.1">
<g id="surface1">
<path style=" stroke:none;fill-rule:nonzero;fill:rgb(0%,0%,0%);fill-opacity:1;" d="M 58 12 C 59.105469 12 60 12.894531 60 14 L 60 50 C 60 51.105469 59.105469 52 58 52 L 6 52 C 4.894531 52 4 51.105469 4 50 L 4 14 C 4 12.894531 4.894531 12 6 12 Z M 6 8 C 2.6875 8 0 10.6875 0 14 L 0 50 C 0 53.3125 2.6875 56 6 56 L 58 56 C 61.3125 56 64 53.3125 64 50 L 64 14 C 64 10.6875 61.3125 8 58 8 Z M 6 8 "/>
<path style=" stroke:none;fill-rule:nonzero;fill:rgb(0%,0%,0%);fill-opacity:1;" d="M 28 22 C 28 20.894531 28.894531 20 30 20 L 50 20 C 51.105469 20 52 20.894531 52 22 C 52 23.105469 51.105469 24 50 24 L 30 24 C 28.894531 24 28 23.105469 28 22 M 22.015625 18.585938 C 22.390625 18.960938 22.605469 19.46875 22.605469 20 C 22.605469 20.53125 22.390625 21.039062 22.015625 21.414062 L 16.015625 27.414062 C 15.640625 27.792969 15.132812 28.003906 14.601562 28.003906 C 14.070312 28.003906 13.558594 27.792969 13.183594 27.414062 L 11.183594 25.414062 C 10.402344 24.632812 10.402344 23.367188 11.183594 22.585938 C 11.964844 21.800781 13.234375 21.800781 14.015625 22.585938 L 14.601562 23.171875 L 19.183594 18.585938 C 19.558594 18.207031 20.070312 17.996094 20.601562 17.996094 C 21.132812 17.996094 21.640625 18.207031 22.015625 18.585938 M 28 38 C 28 36.894531 28.894531 36 30 36 L 50 36 C 51.105469 36 52 36.894531 52 38 C 52 39.105469 51.105469 40 50 40 L 30 40 C 28.894531 40 28 39.105469 28 38 M 22.015625 34.585938 C 22.390625 34.960938 22.605469 35.46875 22.605469 36 C 22.605469 36.53125 22.390625 37.039062 22.015625 37.414062 L 16.015625 43.414062 C 15.640625 43.792969 15.132812 44.003906 14.601562 44.003906 C 14.070312 44.003906 13.558594 43.792969 13.183594 43.414062 L 11.183594 41.414062 C 10.402344 40.632812 10.402344 39.367188 11.183594 38.585938 C 11.964844 37.800781 13.234375 37.800781 14.015625 38.585938 L 14.601562 39.171875 L 19.183594 34.585938 C 19.558594 34.207031 20.070312 33.996094 20.601562 33.996094 C 21.132812 33.996094 21.640625 34.207031 22.015625 34.585938 "/>
</g>
</svg>
