<?xml version="1.0" encoding="UTF-8"?>
<svg xmlns="http://www.w3.org/2000/svg" xmlns:xlink="http://www.w3.org/1999/xlink" width="144px" height="144px" viewBox="0 0 144 144" version="1.1">
<g id="surface1">
<path style=" stroke:none;fill-rule:nonzero;fill:rgb(0%,0%,0%);fill-opacity:1;" d="M 130.5 27 C 132.984375 27 135 29.015625 135 31.5 L 135 112.5 C 135 114.984375 132.984375 117 130.5 117 L 13.5 117 C 11.015625 117 9 114.984375 9 112.5 L 9 31.5 C 9 29.015625 11.015625 27 13.5 27 Z M 13.5 18 C 6.042969 18 0 24.042969 0 31.5 L 0 112.5 C 0 119.957031 6.042969 126 13.5 126 L 130.5 126 C 137.957031 126 144 119.957031 144 112.5 L 144 31.5 C 144 24.042969 137.957031 18 130.5 18 Z M 13.5 18 "/>
<path style=" stroke:none;fill-rule:nonzero;fill:rgb(0%,0%,0%);fill-opacity:1;" d="M 63 49.5 C 63 47.015625 65.015625 45 67.5 45 L 112.5 45 C 114.984375 45 117 47.015625 117 49.5 C 117 51.984375 114.984375 54 112.5 54 L 67.5 54 C 65.015625 54 63 51.984375 63 49.5 M 49.535156 41.8125 C 50.382812 42.660156 50.859375 43.804688 50.859375 45 C 50.859375 46.195312 50.382812 47.339844 49.535156 48.1875 L 36.035156 61.6875 C 35.191406 62.53125 34.046875 63.007812 32.851562 63.007812 C 31.65625 63.007812 30.507812 62.53125 29.664062 61.6875 L 25.164062 57.1875 C 23.40625 55.425781 23.40625 52.574219 25.164062 50.8125 C 26.921875 49.054688 29.777344 49.054688 31.535156 50.8125 L 32.851562 52.136719 L 43.164062 41.8125 C 44.007812 40.96875 45.15625 40.492188 46.351562 40.492188 C 47.546875 40.492188 48.691406 40.96875 49.535156 41.8125 M 63 85.5 C 63 83.015625 65.015625 81 67.5 81 L 112.5 81 C 114.984375 81 117 83.015625 117 85.5 C 117 87.984375 114.984375 90 112.5 90 L 67.5 90 C 65.015625 90 63 87.984375 63 85.5 M 49.535156 77.8125 C 50.382812 78.660156 50.859375 79.804688 50.859375 81 C 50.859375 82.195312 50.382812 83.339844 49.535156 84.1875 L 36.035156 97.6875 C 35.191406 98.53125 34.046875 99.007812 32.851562 99.007812 C 31.65625 99.007812 30.507812 98.53125 29.664062 97.6875 L 25.164062 93.1875 C 23.40625 91.425781 23.40625 88.574219 25.164062 86.8125 C 26.921875 85.054688 29.777344 85.054688 31.535156 86.8125 L 32.851562 88.136719 L 43.164062 77.8125 C 44.007812 76.96875 45.15625 76.492188 46.351562 76.492188 C 47.546875 76.492188 48.691406 76.96875 49.535156 77.8125 "/>
</g>
</svg>
