<?xml version="1.0" encoding="UTF-8"?>
<svg xmlns="http://www.w3.org/2000/svg" xmlns:xlink="http://www.w3.org/1999/xlink" width="192px" height="192px" viewBox="0 0 192 192" version="1.1">
<g id="surface1">
<path style=" stroke:none;fill-rule:nonzero;fill:rgb(0%,0%,0%);fill-opacity:1;" d="M 174 36 C 177.3125 36 180 38.6875 180 42 L 180 150 C 180 153.3125 177.3125 156 174 156 L 18 156 C 14.6875 156 12 153.3125 12 150 L 12 42 C 12 38.6875 14.6875 36 18 36 Z M 18 24 C 8.058594 24 0 32.058594 0 42 L 0 150 C 0 159.941406 8.058594 168 18 168 L 174 168 C 183.941406 168 192 159.941406 192 150 L 192 42 C 192 32.058594 183.941406 24 174 24 Z M 18 24 "/>
<path style=" stroke:none;fill-rule:nonzero;fill:rgb(0%,0%,0%);fill-opacity:1;" d="M 84 66 C 84 62.6875 86.6875 60 90 60 L 150 60 C 153.3125 60 156 62.6875 156 66 C 156 69.3125 153.3125 72 150 72 L 90 72 C 86.6875 72 84 69.3125 84 66 M 66.046875 55.753906 C 67.175781 56.878906 67.8125 58.40625 67.8125 60 C 67.8125 61.59375 67.175781 63.121094 66.046875 64.246094 L 48.046875 82.246094 C 46.921875 83.375 45.394531 84.011719 43.800781 84.011719 C 42.207031 84.011719 40.675781 83.375 39.550781 82.246094 L 33.550781 76.246094 C 31.207031 73.902344 31.207031 70.097656 33.550781 67.753906 C 35.898438 65.40625 39.703125 65.40625 42.046875 67.753906 L 43.800781 69.515625 L 57.550781 55.753906 C 58.675781 54.625 60.207031 53.988281 61.800781 53.988281 C 63.394531 53.988281 64.921875 54.625 66.046875 55.753906 M 84 114 C 84 110.6875 86.6875 108 90 108 L 150 108 C 153.3125 108 156 110.6875 156 114 C 156 117.3125 153.3125 120 150 120 L 90 120 C 86.6875 120 84 117.3125 84 114 M 66.046875 103.753906 C 67.175781 104.878906 67.8125 106.40625 67.8125 108 C 67.8125 109.59375 67.175781 111.121094 66.046875 112.246094 L 48.046875 130.246094 C 46.921875 131.375 45.394531 132.011719 43.800781 132.011719 C 42.207031 132.011719 40.675781 131.375 39.550781 130.246094 L 33.550781 124.246094 C 31.207031 121.902344 31.207031 118.097656 33.550781 115.753906 C 35.898438 113.40625 39.703125 113.40625 42.046875 115.753906 L 43.800781 117.515625 L 57.550781 103.753906 C 58.675781 102.625 60.207031 101.988281 61.800781 101.988281 C 63.394531 101.988281 64.921875 102.625 66.046875 103.753906 "/>
</g>
</svg>
