<?xml version="1.0" encoding="UTF-8"?>
<svg xmlns="http://www.w3.org/2000/svg" xmlns:xlink="http://www.w3.org/1999/xlink" width="512px" height="512px" viewBox="0 0 512 512" version="1.1">
<g id="surface1">
<path style=" stroke:none;fill-rule:nonzero;fill:rgb(0%,0%,0%);fill-opacity:1;" d="M 464 96 C 472.835938 96 480 103.164062 480 112 L 480 400 C 480 408.835938 472.835938 416 464 416 L 48 416 C 39.164062 416 32 408.835938 32 400 L 32 112 C 32 103.164062 39.164062 96 48 96 Z M 48 64 C 21.492188 64 0 85.492188 0 112 L 0 400 C 0 426.507812 21.492188 448 48 448 L 464 448 C 490.507812 448 512 426.507812 512 400 L 512 112 C 512 85.492188 490.507812 64 464 64 Z M 48 64 "/>
<path style=" stroke:none;fill-rule:nonzero;fill:rgb(0%,0%,0%);fill-opacity:1;" d="M 224 176 C 224 167.164062 231.164062 160 240 160 L 400 160 C 408.835938 160 416 167.164062 416 176 C 416 184.835938 408.835938 192 400 192 L 240 192 C 231.164062 192 224 184.835938 224 176 M 176.128906 148.671875 C 179.136719 151.671875 180.828125 155.75 180.828125 160 C 180.828125 164.25 179.136719 168.328125 176.128906 171.328125 L 128.128906 219.328125 C 125.125 222.335938 121.050781 224.027344 116.800781 224.027344 C 112.550781 224.027344 108.472656 222.335938 105.472656 219.328125 L 89.472656 203.328125 C 83.214844 197.070312 83.214844 186.929688 89.472656 180.671875 C 95.726562 174.414062 105.871094 174.414062 112.128906 180.671875 L 116.800781 185.375 L 153.472656 148.671875 C 156.472656 145.664062 160.550781 143.972656 164.800781 143.972656 C 169.050781 143.972656 173.125 145.664062 176.128906 148.671875 M 224 304 C 224 295.164062 231.164062 288 240 288 L 400 288 C 408.835938 288 416 295.164062 416 304 C 416 312.835938 408.835938 320 400 320 L 240 320 C 231.164062 320 224 312.835938 224 304 M 176.128906 276.671875 C 179.136719 279.671875 180.828125 283.75 180.828125 288 C 180.828125 292.25 179.136719 296.328125 176.128906 299.328125 L 128.128906 347.328125 C 125.125 350.335938 121.050781 352.027344 116.800781 352.027344 C 112.550781 352.027344 108.472656 350.335938 105.472656 347.328125 L 89.472656 331.328125 C 83.214844 325.070312 83.214844 314.929688 89.472656 308.671875 C 95.726562 302.414062 105.871094 302.414062 112.128906 308.671875 L 116.800781 313.375 L 153.472656 276.671875 C 156.472656 273.664062 160.550781 271.972656 164.800781 271.972656 C 169.050781 271.972656 173.125 273.664062 176.128906 276.671875 "/>
</g>
</svg>
